<?xml version="1.0" encoding="utf-8"?>
<!-- Generator: Adobe Illustrator 26.0.2, SVG Export Plug-In . SVG Version: 6.00 Build 0)  -->
<svg version="1.1" id="Layer_1" xmlns="http://www.w3.org/2000/svg" xmlns:xlink="http://www.w3.org/1999/xlink" x="0px" y="0px"
	 viewBox="0 0 800 60" style="enable-background:new 0 0 800 60;" xml:space="preserve">
<style type="text/css">
	.st0{fill:#E1E1E1;}
	.st1{fill:#0078D7;}
</style>
<g>
	<path class="st0" d="M106.4,44.3c-2,0-3.8-0.3-5.5-0.9c-1.6-0.6-3-1.5-4.2-2.6c-1.2-1.1-2.1-2.5-2.7-4.2c-0.6-1.7-1-3.6-1-5.8
		c0-2.2,0.3-4.1,1-5.8c0.6-1.7,1.5-3.1,2.7-4.2c1.2-1.1,2.6-2,4.2-2.6c1.6-0.6,3.5-0.9,5.5-0.9c2.3,0,4.4,0.4,6.2,1.2
		c1.8,0.8,3.3,1.9,4.4,3.4c1.1,1.4,1.8,3.1,1.9,5h-7.4c-0.2-0.7-0.5-1.3-1-1.8c-0.5-0.5-1.1-0.9-1.8-1.2c-0.7-0.3-1.5-0.4-2.4-0.4
		c-1.2,0-2.2,0.2-3.1,0.7c-0.9,0.5-1.6,1.3-2.1,2.3c-0.5,1.1-0.7,2.5-0.7,4.2c0,1.3,0.1,2.4,0.4,3.3c0.3,0.9,0.7,1.7,1.2,2.3
		c0.5,0.6,1.1,1,1.9,1.3c0.7,0.3,1.5,0.4,2.4,0.4c0.8,0,1.6-0.1,2.3-0.4c0.7-0.3,1.3-0.7,1.8-1.2s0.8-1.1,1-1.8h7.4
		c-0.2,1.9-0.9,3.6-2,5.1c-1.1,1.5-2.6,2.6-4.4,3.4C110.7,43.9,108.7,44.3,106.4,44.3z"/>
	<path class="st0" d="M121.6,43.9V17.7h6.9v9.9h0.3c0.5-1.2,1.2-2.1,2.3-2.7c1-0.6,2.2-0.9,3.5-0.9c1,0,1.9,0.1,2.7,0.4
		c0.8,0.3,1.6,0.7,2.2,1.4c0.6,0.6,1.1,1.4,1.5,2.5c0.3,1,0.5,2.2,0.5,3.7v12h-6.9V33.4c0-0.9-0.1-1.6-0.3-2.2
		c-0.2-0.6-0.5-1-0.9-1.3c-0.4-0.3-1-0.4-1.7-0.4c-0.7,0-1.3,0.2-1.8,0.5c-0.5,0.3-0.8,0.8-1.1,1.3c-0.2,0.5-0.4,1-0.4,1.5v11.1
		H121.6z"/>
	<path class="st0" d="M145,43.9V24.3h6.2l0.3,2.8h0.3c0.4-1.2,1.1-2.1,2-2.5c0.9-0.4,1.9-0.6,3.1-0.6c0.2,0,0.4,0,0.6,0
		c0.2,0,0.3,0,0.5,0v6.4c-0.1,0-0.3,0-0.5,0c-0.2,0-0.5,0-0.7,0c-1.2,0-2.2,0.2-2.9,0.5c-0.7,0.3-1.2,0.8-1.5,1.4s-0.4,1.4-0.4,2.2
		v9.3H145z"/>
	<path class="st0" d="M169.4,44.3c-1.5,0-2.9-0.2-4.1-0.7c-1.2-0.4-2.3-1.1-3.2-2c-0.9-0.9-1.6-1.9-2.1-3.2
		c-0.5-1.3-0.7-2.7-0.7-4.3c0-2,0.4-3.8,1.2-5.3s1.9-2.7,3.4-3.5c1.5-0.9,3.3-1.3,5.5-1.3c1.5,0,2.9,0.2,4.1,0.7
		c1.2,0.4,2.3,1.1,3.2,2c0.9,0.9,1.6,1.9,2.1,3.2c0.5,1.2,0.7,2.7,0.7,4.3c0,2-0.4,3.8-1.2,5.3c-0.8,1.5-1.9,2.7-3.4,3.6
		C173.4,43.9,171.6,44.3,169.4,44.3z M169.4,38.8c0.6,0,1.2-0.2,1.6-0.5c0.5-0.3,0.8-0.8,1.1-1.5c0.3-0.7,0.4-1.6,0.4-2.7
		c0-0.8-0.1-1.6-0.2-2.1c-0.1-0.6-0.4-1.1-0.6-1.4s-0.6-0.6-1-0.8c-0.4-0.2-0.8-0.3-1.3-0.3c-0.6,0-1.2,0.2-1.6,0.5
		c-0.5,0.3-0.8,0.8-1.1,1.5c-0.3,0.7-0.4,1.6-0.4,2.7c0,0.8,0.1,1.6,0.2,2.1c0.1,0.6,0.4,1.1,0.6,1.4s0.6,0.6,1,0.8
		C168.6,38.7,169,38.8,169.4,38.8z"/>
	<path class="st0" d="M182.3,43.9V24.3h6.6l0.3,3.2h0.3c0.5-1.2,1.2-2.1,2.3-2.7c1-0.6,2.2-0.9,3.5-0.9c1,0,1.9,0.1,2.7,0.4
		c0.8,0.3,1.6,0.7,2.2,1.4c0.6,0.6,1.1,1.4,1.5,2.5c0.3,1,0.5,2.2,0.5,3.7v12h-6.9V33.4c0-0.9-0.1-1.6-0.3-2.2
		c-0.2-0.6-0.5-1-0.9-1.3c-0.4-0.3-1-0.4-1.7-0.4c-0.7,0-1.3,0.2-1.8,0.5c-0.5,0.3-0.8,0.8-1.1,1.3c-0.2,0.5-0.4,1-0.4,1.5v11.1
		H182.3z"/>
	<path class="st0" d="M215,44.3c-1.5,0-2.9-0.2-4.1-0.7c-1.2-0.4-2.3-1.1-3.2-2c-0.9-0.9-1.6-1.9-2.1-3.2c-0.5-1.3-0.7-2.7-0.7-4.3
		c0-2,0.4-3.8,1.2-5.3s1.9-2.7,3.4-3.5c1.5-0.9,3.3-1.3,5.5-1.3c1.5,0,2.9,0.2,4.1,0.7c1.2,0.4,2.3,1.1,3.2,2
		c0.9,0.9,1.6,1.9,2.1,3.2c0.5,1.2,0.7,2.7,0.7,4.3c0,2-0.4,3.8-1.2,5.3c-0.8,1.5-1.9,2.7-3.4,3.6C219,43.9,217.1,44.3,215,44.3z
		 M215,38.8c0.6,0,1.2-0.2,1.6-0.5c0.5-0.3,0.8-0.8,1.1-1.5c0.3-0.7,0.4-1.6,0.4-2.7c0-0.8-0.1-1.6-0.2-2.1
		c-0.1-0.6-0.4-1.1-0.6-1.4s-0.6-0.6-1-0.8c-0.4-0.2-0.8-0.3-1.3-0.3c-0.6,0-1.2,0.2-1.6,0.5c-0.5,0.3-0.8,0.8-1.1,1.5
		c-0.3,0.7-0.4,1.6-0.4,2.7c0,0.8,0.1,1.6,0.2,2.1c0.1,0.6,0.4,1.1,0.6,1.4s0.6,0.6,1,0.8C214.1,38.7,214.5,38.8,215,38.8z"/>
	<path class="st1" d="M235.4,43.9V17.7h11.2c2.4,0,4.3,0.4,5.8,1.1c1.5,0.7,2.7,1.8,3.4,3.1c0.7,1.3,1.1,2.9,1.1,4.7
		c0,1.9-0.4,3.6-1.3,4.9c-0.9,1.3-2.1,2.4-3.6,3.1c-1.5,0.7-3.4,1-5.4,1h-4.5V30h3.9c1.3,0,2.2-0.3,2.7-0.9c0.5-0.6,0.8-1.4,0.8-2.3
		c0-1.1-0.3-1.9-1-2.4c-0.7-0.4-1.5-0.7-2.5-0.7h-4.1l0.8-0.8v20.9H235.4z"/>
	<path class="st1" d="M268.5,44.3c-1.5,0-2.9-0.2-4.1-0.7c-1.2-0.4-2.3-1.1-3.2-2c-0.9-0.9-1.6-1.9-2.1-3.2
		c-0.5-1.3-0.7-2.7-0.7-4.3c0-2,0.4-3.8,1.2-5.3s1.9-2.7,3.4-3.5c1.5-0.9,3.3-1.3,5.5-1.3c1.5,0,2.9,0.2,4.1,0.7
		c1.2,0.4,2.3,1.1,3.2,2c0.9,0.9,1.6,1.9,2.1,3.2c0.5,1.2,0.7,2.7,0.7,4.3c0,2-0.4,3.8-1.2,5.3c-0.8,1.5-1.9,2.7-3.4,3.6
		C272.5,43.9,270.7,44.3,268.5,44.3z M268.5,38.8c0.6,0,1.2-0.2,1.6-0.5c0.5-0.3,0.8-0.8,1.1-1.5c0.3-0.7,0.4-1.6,0.4-2.7
		c0-0.8-0.1-1.6-0.2-2.1c-0.1-0.6-0.4-1.1-0.6-1.4s-0.6-0.6-1-0.8c-0.4-0.2-0.8-0.3-1.3-0.3c-0.6,0-1.2,0.2-1.6,0.5
		c-0.5,0.3-0.8,0.8-1.1,1.5c-0.3,0.7-0.4,1.6-0.4,2.7c0,0.8,0.1,1.6,0.2,2.1c0.1,0.6,0.4,1.1,0.6,1.4s0.6,0.6,1,0.8
		C267.6,38.7,268.1,38.8,268.5,38.8z"/>
	<path class="st1" d="M281.4,49.9V24.3h6.6l0.3,2.8h0.4c0.4-1,1-1.7,2.1-2.3c1-0.6,2.2-0.9,3.5-0.9c1.2,0,2.3,0.2,3.2,0.7
		c1,0.5,1.8,1.1,2.5,2c0.7,0.9,1.2,1.9,1.6,3.2c0.4,1.3,0.6,2.7,0.6,4.3c0,2.1-0.3,4-1,5.5s-1.6,2.7-2.8,3.5s-2.6,1.2-4.2,1.2
		c-0.9,0-1.7-0.1-2.4-0.4c-0.8-0.3-1.4-0.6-1.9-1.1s-0.9-1-1.2-1.7h-0.3v8.9H281.4z M291.4,38.8c0.9,0,1.6-0.2,2.1-0.6
		c0.5-0.4,0.9-0.9,1.2-1.6c0.2-0.7,0.4-1.5,0.4-2.4c0-0.9-0.1-1.8-0.3-2.4c-0.2-0.7-0.6-1.2-1.1-1.6c-0.5-0.4-1.2-0.6-2-0.6
		c-0.7,0-1.4,0.2-1.9,0.5c-0.5,0.3-0.9,0.8-1.1,1.3c-0.2,0.6-0.3,1.2-0.3,2V35c0,0.8,0.1,1.5,0.4,2.1c0.3,0.6,0.6,1,1.1,1.3
		C290.2,38.6,290.7,38.8,291.4,38.8z"/>
	<path class="st1" d="M311.7,44.3c-1.5,0-2.8-0.3-3.9-0.9c-1-0.6-1.8-1.5-2.3-2.6c-0.5-1.1-0.8-2.5-0.8-4.1V24.3h6.9v10.5
		c0,0.9,0.1,1.6,0.3,2.2c0.2,0.6,0.5,1,0.9,1.3s1,0.5,1.6,0.5c0.7,0,1.3-0.2,1.8-0.5c0.5-0.3,0.8-0.8,1.1-1.3c0.2-0.5,0.4-1,0.4-1.5
		V24.3h6.9v19.6H318l-0.3-3.2h-0.3c-0.5,1.2-1.2,2.1-2.2,2.7C314.2,44,313,44.3,311.7,44.3z"/>
	<path class="st1" d="M328.5,49.9V24.3h6.6l0.3,2.8h0.4c0.4-1,1-1.7,2.1-2.3c1-0.6,2.2-0.9,3.5-0.9c1.2,0,2.3,0.2,3.2,0.7
		c1,0.5,1.8,1.1,2.5,2c0.7,0.9,1.2,1.9,1.6,3.2c0.4,1.3,0.6,2.7,0.6,4.3c0,2.1-0.3,4-1,5.5s-1.6,2.7-2.8,3.5s-2.6,1.2-4.2,1.2
		c-0.9,0-1.7-0.1-2.4-0.4c-0.8-0.3-1.4-0.6-1.9-1.1s-0.9-1-1.2-1.7h-0.3v8.9H328.5z M338.5,38.8c0.9,0,1.6-0.2,2.1-0.6
		c0.5-0.4,0.9-0.9,1.2-1.6c0.2-0.7,0.4-1.5,0.4-2.4c0-0.9-0.1-1.8-0.3-2.4c-0.2-0.7-0.6-1.2-1.1-1.6c-0.5-0.4-1.2-0.6-2-0.6
		c-0.7,0-1.4,0.2-1.9,0.5c-0.5,0.3-0.9,0.8-1.1,1.3c-0.2,0.6-0.3,1.2-0.3,2V35c0,0.8,0.1,1.5,0.4,2.1c0.3,0.6,0.6,1,1.1,1.3
		C337.3,38.6,337.9,38.8,338.5,38.8z"/>
	<path class="st0" d="M360.9,43.9V29.8H358v-5.5h2.9V23c0-1.7,0.6-3,1.7-4s2.7-1.4,4.7-1.4h4.4v4.4h-2.6c-0.4,0-0.7,0.1-1,0.3
		c-0.3,0.2-0.4,0.5-0.4,1v1h3.7v5.5h-3.7v14.1H360.9z"/>
	<path class="st0" d="M383,44.3c-1.5,0-2.9-0.2-4.1-0.7c-1.2-0.4-2.3-1.1-3.2-2c-0.9-0.9-1.6-1.9-2.1-3.2c-0.5-1.3-0.7-2.7-0.7-4.3
		c0-2,0.4-3.8,1.2-5.3s1.9-2.7,3.4-3.5c1.5-0.9,3.3-1.3,5.5-1.3c1.5,0,2.9,0.2,4.1,0.7c1.2,0.4,2.3,1.1,3.2,2
		c0.9,0.9,1.6,1.9,2.1,3.2c0.5,1.2,0.7,2.7,0.7,4.3c0,2-0.4,3.8-1.2,5.3c-0.8,1.5-1.9,2.7-3.4,3.6C387,43.9,385.2,44.3,383,44.3z
		 M383,38.8c0.6,0,1.2-0.2,1.6-0.5c0.5-0.3,0.8-0.8,1.1-1.5c0.3-0.7,0.4-1.6,0.4-2.7c0-0.8-0.1-1.6-0.2-2.1
		c-0.1-0.6-0.4-1.1-0.6-1.4s-0.6-0.6-1-0.8c-0.4-0.2-0.8-0.3-1.3-0.3c-0.6,0-1.2,0.2-1.6,0.5c-0.5,0.3-0.8,0.8-1.1,1.5
		c-0.3,0.7-0.4,1.6-0.4,2.7c0,0.8,0.1,1.6,0.2,2.1c0.1,0.6,0.4,1.1,0.6,1.4s0.6,0.6,1,0.8C382.1,38.7,382.6,38.8,383,38.8z"/>
	<path class="st0" d="M395.9,43.9V24.3h6.2l0.3,2.8h0.3c0.4-1.2,1.1-2.1,2-2.5c0.9-0.4,1.9-0.6,3.1-0.6c0.2,0,0.4,0,0.6,0
		c0.2,0,0.3,0,0.5,0v6.4c-0.1,0-0.3,0-0.5,0s-0.5,0-0.7,0c-1.2,0-2.2,0.2-2.9,0.5c-0.7,0.3-1.2,0.8-1.5,1.4
		c-0.3,0.6-0.4,1.4-0.4,2.2v9.3H395.9z"/>
	<polygon class="st0" points="436.2,17.7 436.2,27.5 426.2,27.5 426.2,17.7 418.9,17.7 418.9,43.9 426.2,43.9 426.2,33.7 
		436.2,33.7 436.2,43.9 443.5,43.9 443.5,17.7 	"/>
	<path class="st0" d="M456.6,44.3c-1.5,0-2.9-0.2-4.1-0.7c-1.2-0.4-2.3-1.1-3.2-2c-0.9-0.9-1.6-1.9-2.1-3.2
		c-0.5-1.3-0.7-2.7-0.7-4.3c0-2,0.4-3.8,1.2-5.3c0.8-1.5,1.9-2.7,3.4-3.5c1.5-0.9,3.3-1.3,5.5-1.3c1.5,0,2.9,0.2,4.1,0.7
		c1.2,0.4,2.3,1.1,3.2,2c0.9,0.9,1.6,1.9,2.1,3.2c0.5,1.2,0.7,2.7,0.7,4.3c0,2-0.4,3.8-1.2,5.3c-0.8,1.5-1.9,2.7-3.4,3.6
		C460.6,43.9,458.8,44.3,456.6,44.3z M456.6,38.8c0.6,0,1.2-0.2,1.6-0.5c0.5-0.3,0.8-0.8,1.1-1.5c0.3-0.7,0.4-1.6,0.4-2.7
		c0-0.8-0.1-1.6-0.2-2.1s-0.4-1.1-0.6-1.4c-0.3-0.4-0.6-0.6-1-0.8s-0.8-0.3-1.3-0.3c-0.6,0-1.2,0.2-1.6,0.5
		c-0.5,0.3-0.8,0.8-1.1,1.5c-0.3,0.7-0.4,1.6-0.4,2.7c0,0.8,0.1,1.6,0.2,2.1c0.1,0.6,0.4,1.1,0.6,1.4c0.3,0.4,0.6,0.6,1,0.8
		C455.7,38.7,456.2,38.8,456.6,38.8z"/>
	<path class="st0" d="M469.5,43.9V24.3h6.7l0.2,3.2h0.3c0.4-1.2,1.2-2.1,2.2-2.7c1-0.6,2.1-0.9,3.3-0.9c1.3,0,2.5,0.3,3.6,0.9
		c1.1,0.6,1.9,1.7,2.5,3.2h0.3c0.4-1.4,1.2-2.4,2.3-3.1c1.1-0.7,2.4-1,3.8-1c1.2,0,2.3,0.3,3.3,0.8s1.8,1.4,2.4,2.5
		c0.6,1.2,0.9,2.7,0.9,4.7v12h-6.9V33.4c0-0.9-0.1-1.6-0.3-2.2c-0.2-0.6-0.4-1-0.8-1.3s-0.9-0.4-1.5-0.4c-0.6,0-1.2,0.2-1.6,0.5
		c-0.4,0.3-0.8,0.8-1,1.3c-0.2,0.5-0.3,1-0.3,1.5v11.1h-6.9V33.4c0-0.9-0.1-1.6-0.3-2.2c-0.2-0.6-0.4-1-0.8-1.3
		c-0.4-0.3-0.9-0.4-1.5-0.4c-0.6,0-1.2,0.2-1.6,0.5c-0.4,0.3-0.8,0.8-1,1.3c-0.2,0.5-0.3,1-0.3,1.5v11.1H469.5z"/>
	<path class="st0" d="M514,44.3c-2.1,0-4-0.4-5.5-1.2s-2.6-2-3.4-3.5c-0.8-1.5-1.2-3.2-1.2-5.2c0-2.1,0.4-4,1.2-5.5
		c0.8-1.5,2-2.7,3.4-3.6c1.5-0.8,3.2-1.2,5.2-1.2c2.4,0,4.3,0.5,5.8,1.5c1.5,1,2.6,2.4,3.3,4.2c0.7,1.8,0.9,3.8,0.6,6h-12.8
		c0,0.7,0.1,1.3,0.4,1.9c0.3,0.5,0.7,0.9,1.2,1.2c0.5,0.3,1.1,0.4,1.8,0.4c0.8,0,1.4-0.1,1.9-0.4c0.5-0.3,0.8-0.6,0.9-1h6.5
		c-0.2,1.3-0.7,2.5-1.5,3.4s-1.9,1.7-3.2,2.3S515.7,44.3,514,44.3z M510.7,32.2l-0.6-0.6h7.2l-0.6,0.5c0-0.7,0-1.2-0.3-1.7
		c-0.2-0.5-0.6-0.8-1-1.1c-0.5-0.3-1-0.4-1.6-0.4c-0.6,0-1.2,0.1-1.7,0.4s-0.8,0.6-1.1,1.1C510.8,31,510.7,31.6,510.7,32.2z"/>
	<path class="st0" d="M551.4,43.9h7.6l-8.2-26.2h-10.4l-8.2,26.2h7.6l1.3-4.7h9L551.4,43.9z M542.6,33.7l2-7.1l0.9-3.4h0.3l0.9,3.4
		l2,7.1H542.6z"/>
	<path class="st0" d="M569.2,44.3c-1.4,0-2.6-0.2-3.7-0.5c-1.1-0.3-2-0.8-2.8-1.3c-0.8-0.6-1.4-1.3-1.8-2.1
		c-0.4-0.8-0.6-1.7-0.6-2.6h6.8c0,0.4,0.2,0.7,0.4,1c0.2,0.3,0.5,0.5,0.8,0.6c0.3,0.1,0.7,0.2,1.2,0.2c0.7,0,1.2-0.1,1.5-0.3
		c0.3-0.2,0.5-0.5,0.5-0.9c0-0.4-0.1-0.6-0.3-0.8c-0.2-0.2-0.5-0.3-0.9-0.4c-0.4-0.1-1-0.2-1.8-0.3c-1.8-0.3-3.2-0.6-4.3-1.1
		c-1.1-0.5-2-1.1-2.5-1.9c-0.5-0.8-0.8-1.9-0.8-3.2c0-1.3,0.4-2.5,1.1-3.5c0.7-1,1.8-1.8,3.1-2.3c1.3-0.6,2.9-0.8,4.6-0.8
		c1.6,0,3.1,0.3,4.3,0.8c1.2,0.5,2.2,1.2,2.9,2.2c0.7,0.9,1.1,2,1.2,3.2h-6.8c0-0.3-0.1-0.6-0.2-0.8s-0.4-0.4-0.6-0.5
		c-0.3-0.1-0.6-0.2-1-0.2c-0.5,0-0.9,0.1-1.2,0.3c-0.3,0.2-0.5,0.5-0.5,0.9c0,0.3,0.1,0.6,0.3,0.8c0.2,0.2,0.6,0.3,1.2,0.5
		s1.3,0.2,2.1,0.4c1.7,0.2,3.1,0.6,4.1,1c1,0.5,1.8,1.1,2.3,1.9c0.5,0.8,0.7,1.9,0.7,3.1c0,1.4-0.4,2.6-1.1,3.6
		c-0.8,1-1.8,1.7-3.2,2.2S571,44.3,569.2,44.3z"/>
	<path class="st0" d="M589.5,44.3c-1.4,0-2.6-0.2-3.7-0.5c-1.1-0.3-2-0.8-2.8-1.3c-0.8-0.6-1.4-1.3-1.8-2.1s-0.6-1.7-0.6-2.6h6.8
		c0,0.4,0.2,0.7,0.4,1c0.2,0.3,0.5,0.5,0.8,0.6c0.3,0.1,0.7,0.2,1.2,0.2c0.7,0,1.2-0.1,1.5-0.3c0.3-0.2,0.5-0.5,0.5-0.9
		c0-0.4-0.1-0.6-0.3-0.8c-0.2-0.2-0.5-0.3-0.9-0.4c-0.4-0.1-1-0.2-1.8-0.3c-1.8-0.3-3.2-0.6-4.3-1.1c-1.1-0.5-2-1.1-2.5-1.9
		s-0.8-1.9-0.8-3.2c0-1.3,0.4-2.5,1.1-3.5s1.8-1.8,3.1-2.3c1.3-0.6,2.9-0.8,4.6-0.8c1.6,0,3.1,0.3,4.3,0.8s2.2,1.2,2.9,2.2
		c0.7,0.9,1.1,2,1.2,3.2h-6.8c0-0.3-0.1-0.6-0.2-0.8s-0.4-0.4-0.6-0.5c-0.3-0.1-0.6-0.2-1-0.2c-0.5,0-0.9,0.1-1.2,0.3
		c-0.3,0.2-0.5,0.5-0.5,0.9c0,0.3,0.1,0.6,0.3,0.8c0.2,0.2,0.6,0.3,1.2,0.5c0.5,0.1,1.3,0.2,2.1,0.4c1.7,0.2,3.1,0.6,4.1,1
		c1,0.5,1.8,1.1,2.3,1.9c0.5,0.8,0.7,1.9,0.7,3.1c0,1.4-0.4,2.6-1.1,3.6c-0.8,1-1.8,1.7-3.2,2.2C592.9,44,591.3,44.3,589.5,44.3z"/>
	<path class="st0" d="M604.9,22.7c-1,0-1.8-0.3-2.5-0.8c-0.7-0.5-1-1.3-1-2.2s0.3-1.7,1-2.2s1.5-0.8,2.5-0.8s1.8,0.3,2.5,0.8
		s1,1.3,1,2.2s-0.3,1.7-1,2.2C606.7,22.5,605.9,22.7,604.9,22.7z M601.4,43.9V24.3h6.9v19.6H601.4z"/>
	<path class="st0" d="M620,44.3c-1.4,0-2.6-0.2-3.7-0.5c-1.1-0.3-2-0.8-2.8-1.3c-0.8-0.6-1.4-1.3-1.8-2.1c-0.4-0.8-0.6-1.7-0.6-2.6
		h6.8c0,0.4,0.2,0.7,0.4,1c0.2,0.3,0.5,0.5,0.8,0.6c0.3,0.1,0.7,0.2,1.2,0.2c0.7,0,1.2-0.1,1.5-0.3c0.3-0.2,0.5-0.5,0.5-0.9
		c0-0.4-0.1-0.6-0.3-0.8c-0.2-0.2-0.5-0.3-0.9-0.4c-0.4-0.1-1-0.2-1.8-0.3c-1.8-0.3-3.2-0.6-4.3-1.1c-1.1-0.5-2-1.1-2.5-1.9
		c-0.5-0.8-0.8-1.9-0.8-3.2c0-1.3,0.4-2.5,1.1-3.5c0.7-1,1.8-1.8,3.1-2.3c1.3-0.6,2.9-0.8,4.6-0.8c1.6,0,3.1,0.3,4.3,0.8
		c1.2,0.5,2.2,1.2,2.9,2.2c0.7,0.9,1.1,2,1.2,3.2h-6.8c0-0.3-0.1-0.6-0.2-0.8s-0.4-0.4-0.6-0.5c-0.3-0.1-0.6-0.2-1-0.2
		c-0.5,0-0.9,0.1-1.2,0.3c-0.3,0.2-0.5,0.5-0.5,0.9c0,0.3,0.1,0.6,0.3,0.8c0.2,0.2,0.6,0.3,1.2,0.5s1.3,0.2,2.1,0.4
		c1.7,0.2,3.1,0.6,4.1,1c1,0.5,1.8,1.1,2.3,1.9c0.5,0.8,0.7,1.9,0.7,3.1c0,1.4-0.4,2.6-1.1,3.6c-0.8,1-1.8,1.7-3.2,2.2
		S621.8,44.3,620,44.3z"/>
	<path class="st0" d="M639.3,43.9c-1.9,0-3.3-0.4-4.1-1.3c-0.9-0.9-1.3-2.3-1.3-4.2v-8.6h-3.3v-5.5h3.3v-5l6.9-0.6v5.6h3.6v5.5h-3.6
		v7.3c0,0.5,0.1,0.8,0.4,1c0.3,0.2,0.6,0.3,1,0.3h2.2v5.5H639.3z"/>
	<path class="st0" d="M654.4,44.3c-1.2,0-2.2-0.2-3.2-0.7c-1-0.5-1.8-1.1-2.5-2c-0.7-0.9-1.2-1.9-1.6-3.2c-0.4-1.3-0.6-2.7-0.6-4.3
		c0-2.2,0.3-4,1-5.5c0.7-1.5,1.6-2.7,2.8-3.5s2.6-1.2,4.1-1.2c0.9,0,1.7,0.1,2.4,0.4s1.4,0.6,1.9,1.1c0.5,0.5,0.9,1,1.2,1.7h0.4
		l0.3-2.8h6.6v19.6h-6.6l-0.3-2.8H660c-0.4,1-1,1.7-2.1,2.3C656.9,44,655.7,44.3,654.4,44.3z M657,38.8c0.8,0,1.4-0.2,1.9-0.5
		c0.5-0.3,0.8-0.8,1.1-1.3s0.3-1.2,0.3-2v-1.7c0-0.8-0.1-1.5-0.4-2.1c-0.3-0.6-0.6-1-1.1-1.3c-0.5-0.3-1-0.4-1.6-0.4
		c-0.9,0-1.6,0.2-2.1,0.6c-0.5,0.4-0.9,0.9-1.2,1.6c-0.2,0.7-0.4,1.5-0.4,2.4c0,0.9,0.1,1.7,0.3,2.4c0.2,0.7,0.6,1.3,1.1,1.6
		S656.1,38.8,657,38.8z"/>
	<path class="st0" d="M671,43.9V24.3h6.6l0.3,3.2h0.3c0.5-1.2,1.2-2.1,2.3-2.7c1-0.6,2.2-0.9,3.5-0.9c1,0,1.9,0.1,2.7,0.4
		c0.8,0.3,1.6,0.7,2.2,1.4c0.6,0.6,1.1,1.4,1.5,2.5c0.3,1,0.5,2.2,0.5,3.7v12h-6.9V33.4c0-0.9-0.1-1.6-0.3-2.2
		c-0.2-0.6-0.5-1-0.9-1.3c-0.4-0.3-1-0.4-1.7-0.4c-0.7,0-1.3,0.2-1.8,0.5c-0.5,0.3-0.8,0.8-1.1,1.3c-0.2,0.5-0.4,1-0.4,1.5v11.1H671
		z"/>
	<path class="st0" d="M701.8,43.9c-1.9,0-3.3-0.4-4.1-1.3c-0.9-0.9-1.3-2.3-1.3-4.2v-8.6h-3.3v-5.5h3.3v-5l6.9-0.6v5.6h3.6v5.5h-3.6
		v7.3c0,0.5,0.1,0.8,0.4,1c0.3,0.2,0.6,0.3,1,0.3h2.2v5.5H701.8z"/>
</g>
</svg>
